<svg width="3280" height="628" viewBox="0 0 3280 628" fill="none" xmlns="http://www.w3.org/2000/svg">
<circle cx="313.75" cy="313.75" r="313.75" fill="#0053DB"/>
<path d="M526.638 313.023H513.425C512.097 313.024 510.821 312.507 509.868 311.582C508.915 310.656 508.36 309.396 508.321 308.069C507.106 258.031 486.685 210.378 451.291 174.987C415.897 139.596 368.243 119.179 318.204 117.968C316.875 117.934 315.613 117.38 314.687 116.427C313.761 115.473 313.245 114.194 313.25 112.865V99.652C313.247 98.9699 313.382 98.2942 313.646 97.6652C313.91 97.0362 314.297 96.4668 314.786 95.9906C315.274 95.5145 315.853 95.1415 316.489 94.8937C317.124 94.646 317.803 94.5286 318.485 94.5486C374.629 95.834 428.117 118.709 467.828 158.417C507.539 198.125 530.418 251.612 531.708 307.755C531.728 308.435 531.612 309.113 531.366 309.748C531.121 310.383 530.752 310.963 530.279 311.454C529.807 311.945 529.242 312.336 528.617 312.606C527.991 312.875 527.319 313.017 526.638 313.023Z" fill="white"/>
<path d="M313.281 526.376C313.279 527.059 313.141 527.734 312.874 528.362C312.607 528.99 312.218 529.558 311.729 530.034C311.24 530.509 310.66 530.882 310.025 531.13C309.389 531.379 308.711 531.498 308.029 531.48C251.887 530.186 198.403 507.306 158.695 467.595C118.988 427.885 96.1117 374.399 94.8222 318.257C94.8022 317.575 94.9197 316.896 95.1674 316.261C95.4152 315.625 95.7882 315.046 96.2643 314.558C96.7404 314.069 97.3099 313.681 97.9389 313.418C98.5679 313.154 99.2436 313.019 99.9257 313.022H113.139C114.468 313.017 115.746 313.533 116.7 314.459C117.654 315.385 118.208 316.647 118.242 317.976C119.453 368.014 139.87 415.668 175.261 451.063C210.652 486.457 258.304 506.878 308.342 508.093C309.67 508.132 310.93 508.687 311.855 509.639C312.781 510.592 313.298 511.868 313.297 513.197L313.281 526.376Z" fill="white"/>
<path d="M462.437 250.048C461.219 250.564 459.848 250.585 458.615 250.107C457.382 249.629 456.383 248.69 455.831 247.488C439.117 211.271 409.255 182.766 372.3 167.753C335.346 152.74 294.065 152.343 256.828 166.641C255.583 167.14 254.193 167.128 252.956 166.609C251.72 166.089 250.738 165.104 250.222 163.867L245.085 151.711C244.818 151.081 244.68 150.404 244.679 149.72C244.679 149.035 244.816 148.358 245.083 147.728C245.349 147.098 245.74 146.528 246.231 146.051C246.722 145.575 247.304 145.203 247.943 144.956C290.821 128.363 338.416 128.759 381.012 146.064C423.609 163.369 457.995 196.278 477.153 238.074C477.44 238.694 477.599 239.367 477.62 240.05C477.642 240.733 477.526 241.414 477.28 242.052C477.033 242.69 476.661 243.272 476.186 243.763C475.71 244.254 475.14 244.644 474.511 244.911L462.437 250.048Z" fill="white"/>
<path d="M313.281 493.245C278.74 493.223 244.931 483.291 215.866 464.628C186.802 445.965 163.702 419.354 149.309 387.955C149.024 387.334 148.866 386.662 148.845 385.979C148.825 385.296 148.942 384.616 149.19 383.979C149.439 383.343 149.812 382.763 150.29 382.274C150.767 381.785 151.338 381.397 151.968 381.134L164.124 375.981C165.342 375.465 166.713 375.443 167.946 375.921C169.18 376.399 170.178 377.339 170.731 378.541C187.418 414.779 217.27 443.31 254.226 458.34C291.182 473.37 332.473 473.774 369.717 459.469C370.935 458.984 372.294 458.988 373.51 459.48C374.725 459.973 375.703 460.915 376.241 462.112L381.394 474.268C381.658 474.899 381.794 475.577 381.792 476.261C381.79 476.946 381.651 477.623 381.383 478.252C381.115 478.882 380.724 479.452 380.232 479.928C379.74 480.403 379.158 480.776 378.52 481.023C357.724 489.122 335.599 493.267 313.281 493.245Z" fill="white"/>
<path d="M313.277 454.946C277.448 455.025 242.93 441.475 216.724 417.042C216.223 416.573 215.822 416.009 215.543 415.383C215.265 414.756 215.115 414.08 215.102 413.395C215.09 412.709 215.216 412.028 215.471 411.392C215.727 410.756 216.108 410.178 216.592 409.692L225.94 400.36C226.873 399.43 228.13 398.897 229.448 398.872C230.765 398.847 232.041 399.333 233.009 400.228C254.863 420.418 283.524 431.631 313.277 431.631C343.03 431.631 371.691 420.418 393.545 400.228C394.511 399.33 395.787 398.841 397.106 398.866C398.425 398.89 399.683 399.426 400.614 400.36L409.946 409.692C410.432 410.176 410.816 410.753 411.075 411.388C411.333 412.024 411.461 412.705 411.45 413.391C411.439 414.078 411.29 414.754 411.012 415.382C410.734 416.009 410.332 416.573 409.83 417.042C383.624 441.475 349.106 455.025 313.277 454.946Z" fill="white"/>
<path d="M225.946 225.689L216.598 216.34C216.115 215.856 215.734 215.279 215.479 214.644C215.223 214.01 215.098 213.33 215.11 212.646C215.122 211.962 215.272 211.287 215.551 210.662C215.829 210.037 216.23 209.474 216.73 209.007C242.948 184.581 277.45 170.999 313.283 170.999C349.117 170.999 383.618 184.581 409.836 209.007C410.338 209.474 410.739 210.037 411.017 210.663C411.296 211.289 411.445 211.964 411.455 212.649C411.466 213.334 411.339 214.014 411.08 214.648C410.822 215.282 410.438 215.858 409.952 216.34L400.62 225.689C399.685 226.615 398.429 227.146 397.112 227.171C395.796 227.195 394.521 226.712 393.552 225.821C371.697 205.631 343.036 194.418 313.283 194.418C283.53 194.418 254.87 205.631 233.015 225.821C232.046 226.712 230.77 227.195 229.454 227.171C228.138 227.146 226.881 226.615 225.946 225.689Z" fill="white"/>
<path d="M313.277 416.648C301.257 416.674 289.325 414.606 278.015 410.537C277.36 410.302 276.76 409.936 276.252 409.461C275.743 408.987 275.337 408.414 275.057 407.777C274.777 407.14 274.63 406.453 274.625 405.758C274.619 405.062 274.756 404.373 275.026 403.732L280.162 391.593C280.662 390.391 281.602 389.425 282.789 388.891C283.976 388.357 285.323 388.296 286.554 388.719C305.081 395.199 325.336 394.69 343.514 387.287C361.692 379.885 376.541 366.098 385.271 348.519C385.855 347.349 386.867 346.449 388.096 346.003C389.325 345.558 390.679 345.601 391.877 346.124L404.049 351.277C404.689 351.548 405.267 351.946 405.748 352.447C406.229 352.949 406.602 353.544 406.845 354.195C407.087 354.846 407.195 355.539 407.16 356.233C407.125 356.927 406.949 357.607 406.642 358.23C398.166 375.762 384.914 390.546 368.409 400.88C351.903 411.215 332.816 416.68 313.343 416.648H313.277Z" fill="white"/>
<path d="M234.73 279.911L222.558 274.774C221.921 274.5 221.346 274.1 220.868 273.597C220.39 273.095 220.019 272.501 219.777 271.851C219.534 271.202 219.426 270.51 219.458 269.817C219.491 269.124 219.663 268.445 219.965 267.821C231.185 244.795 250.512 226.722 274.237 217.069C297.963 207.416 324.418 206.863 348.526 215.515C349.182 215.748 349.784 216.113 350.294 216.586C350.805 217.06 351.213 217.633 351.494 218.27C351.775 218.907 351.924 219.594 351.931 220.291C351.937 220.987 351.802 221.677 351.532 222.319L346.396 234.459C345.892 235.657 344.952 236.62 343.765 237.15C342.577 237.681 341.233 237.74 340.004 237.316C321.478 230.825 301.218 231.329 283.037 238.732C264.856 246.136 250.008 259.929 241.287 277.516C240.706 278.676 239.703 279.57 238.484 280.016C237.265 280.461 235.922 280.423 234.73 279.911Z" fill="white"/>
<path d="M266.519 313.026H253.307C252.602 313.028 251.905 312.884 251.26 312.603C250.614 312.322 250.034 311.91 249.555 311.393C249.077 310.876 248.711 310.265 248.482 309.6C248.252 308.934 248.162 308.228 248.22 307.526C248.763 300.703 250.397 294.012 253.059 287.707C259.746 272.002 272.253 259.496 287.957 252.808C294.263 250.147 300.954 248.513 307.777 247.969C308.479 247.912 309.185 248.001 309.85 248.231C310.516 248.461 311.127 248.826 311.644 249.305C312.161 249.783 312.573 250.363 312.854 251.009C313.135 251.655 313.279 252.352 313.277 253.056V266.269C313.276 267.527 312.81 268.741 311.968 269.677C311.127 270.613 309.969 271.205 308.718 271.339C304.694 271.74 300.752 272.742 297.025 274.312C286.931 278.637 278.888 286.68 274.563 296.774C272.993 300.501 271.991 304.443 271.59 308.467C271.455 309.719 270.863 310.876 269.928 311.718C268.992 312.559 267.778 313.025 266.519 313.026Z" fill="white"/>
<path d="M313.28 373.022V359.809C313.278 358.55 313.742 357.334 314.584 356.397C315.427 355.461 316.586 354.87 317.839 354.739C321.864 354.33 325.805 353.323 329.532 351.749C339.612 347.418 347.646 339.384 351.978 329.304C353.551 325.577 354.559 321.636 354.967 317.611C355.098 316.358 355.689 315.198 356.626 314.356C357.562 313.514 358.778 313.05 360.038 313.052H373.25C373.954 313.05 374.65 313.194 375.295 313.474C375.941 313.754 376.521 314.164 377 314.679C377.48 315.194 377.847 315.802 378.08 316.466C378.313 317.129 378.406 317.834 378.354 318.536C377.809 325.36 376.169 332.052 373.498 338.355C366.797 354.04 354.302 366.535 338.616 373.237C332.313 375.908 325.621 377.548 318.797 378.093C318.096 378.15 317.39 378.061 316.725 377.832C316.059 377.603 315.448 377.239 314.93 376.763C314.412 376.287 313.998 375.709 313.714 375.065C313.43 374.421 313.283 373.726 313.28 373.022Z" fill="white"/>
<path d="M313.279 329.934C322.62 329.934 330.192 322.362 330.192 313.022C330.192 303.681 322.62 296.109 313.279 296.109C303.939 296.109 296.367 303.681 296.367 313.022C296.367 322.362 303.939 329.934 313.279 329.934Z" fill="white"/>
<path d="M313.214 569.749C249.754 569.616 188.606 545.918 141.631 503.251C94.6554 460.585 65.2015 401.992 58.9824 338.838C52.7633 275.684 70.2224 212.471 107.973 161.461C145.724 110.452 201.075 75.2813 263.289 62.7727C325.503 50.264 390.146 61.3088 444.678 93.7644C499.21 126.22 539.744 177.773 558.416 238.423C577.089 299.073 572.569 364.497 545.735 422.003C518.9 479.51 471.662 524.999 413.186 549.648C381.553 563.006 347.55 569.842 313.214 569.749ZM313.214 79.5178C184.504 79.5178 79.7914 184.23 79.7914 312.923C79.7914 441.617 184.504 546.345 313.214 546.345C441.924 546.345 546.619 441.633 546.619 312.923C546.619 184.213 441.924 79.5178 313.214 79.5178Z" fill="white"/>
<path d="M721.295 445V181.59H819.61C848.548 181.59 872.663 187.526 891.955 199.398C911.495 211.023 926.211 226.852 936.104 246.886C945.998 266.673 950.944 288.685 950.944 312.924C950.944 339.636 945.503 362.885 934.62 382.672C923.738 402.459 908.403 417.793 888.616 428.676C869.077 439.559 846.075 445 819.61 445H721.295ZM888.987 312.924C888.987 297.589 886.267 284.11 880.825 272.485C875.384 260.613 867.469 251.462 857.081 245.031C846.693 238.353 834.203 235.014 819.61 235.014H782.139V391.576H819.61C834.45 391.576 846.941 388.237 857.081 381.559C867.469 374.634 875.384 365.235 880.825 353.363C886.267 341.244 888.987 327.764 888.987 312.924ZM1075.16 448.71C1058.59 448.71 1043.87 446.113 1031.01 440.919C1018.15 435.478 1007.15 428.181 997.995 419.03C989.091 409.879 982.289 399.367 977.59 387.495C972.89 375.376 970.541 362.762 970.541 349.653C970.541 330.856 974.622 313.79 982.784 298.455C991.193 282.873 1003.19 270.383 1018.77 260.984C1034.35 251.338 1053.15 246.515 1075.16 246.515C1097.18 246.515 1115.85 251.214 1131.18 260.613C1146.77 270.012 1158.64 282.378 1166.8 297.713C1174.96 312.8 1179.04 329.248 1179.04 347.056C1179.04 350.519 1178.8 353.981 1178.3 357.444C1178.05 360.659 1177.81 363.504 1177.56 365.977H1033.61C1034.35 374.634 1036.7 381.93 1040.66 387.866C1044.86 393.802 1050.18 398.378 1056.61 401.593C1063.04 404.561 1069.84 406.045 1077.02 406.045C1085.92 406.045 1094.21 403.943 1101.87 399.738C1109.79 395.533 1115.23 389.845 1118.2 382.672L1168.65 396.77C1163.71 406.911 1156.66 415.938 1147.51 423.853C1138.6 431.52 1127.97 437.58 1115.6 442.032C1103.48 446.484 1090 448.71 1075.16 448.71ZM1032.13 329.619H1116.71C1115.73 321.457 1113.38 314.408 1109.67 308.472C1105.96 302.289 1101.01 297.589 1094.83 294.374C1088.64 290.911 1081.84 289.18 1074.42 289.18C1066.75 289.18 1059.83 290.911 1053.64 294.374C1047.71 297.589 1042.89 302.289 1039.18 308.472C1035.47 314.408 1033.12 321.457 1032.13 329.619ZM1193.7 386.753C1193.7 373.892 1197.29 362.638 1204.46 352.992C1211.63 343.346 1221.53 335.802 1234.14 330.361C1246.76 324.672 1261.22 321.828 1277.55 321.828C1285.46 321.828 1293.25 322.57 1300.92 324.054C1308.59 325.291 1315.27 327.146 1320.96 329.619V321.086C1320.96 310.451 1317.74 302.289 1311.31 296.6C1304.88 290.911 1295.11 288.067 1282 288.067C1271.12 288.067 1260.85 289.922 1251.21 293.632C1241.81 297.342 1231.79 302.66 1221.16 309.585L1203.35 271.743C1216.21 263.334 1229.57 257.027 1243.42 252.822C1257.51 248.617 1272.35 246.515 1287.94 246.515C1317.12 246.515 1339.75 253.564 1355.83 267.662C1372.15 281.513 1380.32 301.67 1380.32 328.135V378.962C1380.32 384.898 1381.18 389.103 1382.91 391.576C1384.89 393.802 1388.23 395.162 1392.93 395.657V445C1387.98 445.989 1383.28 446.731 1378.83 447.226C1374.63 447.721 1370.92 447.968 1367.7 447.968C1356.57 447.968 1348.04 445.742 1342.1 441.29C1336.41 436.838 1332.83 430.778 1331.34 423.111L1330.23 414.578C1321.57 425.708 1311.19 434.241 1299.07 440.177C1287.19 445.866 1274.7 448.71 1261.6 448.71C1248.73 448.71 1237.11 445.989 1226.72 440.548C1216.58 435.107 1208.54 427.687 1202.61 418.288C1196.67 408.889 1193.7 398.378 1193.7 386.753ZM1311.68 394.173C1314.4 391.947 1316.63 389.474 1318.36 386.753C1320.09 384.032 1320.96 381.435 1320.96 378.962V361.525C1316.01 359.546 1310.44 358.062 1304.26 357.073C1298.32 355.836 1292.76 355.218 1287.57 355.218C1276.68 355.218 1267.66 357.691 1260.48 362.638C1253.31 367.337 1249.72 373.644 1249.72 381.559C1249.72 386.011 1250.96 390.092 1253.43 393.802C1255.91 397.512 1259.25 400.48 1263.45 402.706C1267.9 404.932 1273.1 406.045 1279.03 406.045C1284.97 406.045 1290.9 404.932 1296.84 402.706C1302.78 400.48 1307.72 397.636 1311.68 394.173ZM1422.59 174.17H1481.95V375.623C1481.95 383.785 1483.43 389.597 1486.4 393.06C1489.37 396.523 1493.57 398.254 1499.01 398.254C1502.72 398.254 1506.43 397.759 1510.14 396.77C1514.1 395.533 1517.56 394.173 1520.53 392.689L1528.32 437.209C1520.9 440.672 1512.37 443.392 1502.72 445.371C1493.08 447.35 1484.05 448.339 1475.64 448.339C1458.82 448.339 1445.71 443.887 1436.31 434.983C1427.16 425.832 1422.59 412.97 1422.59 396.399V174.17ZM1837.35 445V288.067L1780.59 402.335H1747.2L1690.44 288.067V445H1629.59V181.59H1695.63L1763.9 319.231L1832.53 181.59H1898.2V445H1837.35ZM2033.82 448.71C2017.25 448.71 2002.53 446.113 1989.67 440.919C1976.81 435.478 1965.8 428.181 1956.65 419.03C1947.75 409.879 1940.95 399.367 1936.25 387.495C1931.55 375.376 1929.2 362.762 1929.2 349.653C1929.2 330.856 1933.28 313.79 1941.44 298.455C1949.85 282.873 1961.85 270.383 1977.43 260.984C1993.01 251.338 2011.81 246.515 2033.82 246.515C2055.83 246.515 2074.51 251.214 2089.84 260.613C2105.42 270.012 2117.3 282.378 2125.46 297.713C2133.62 312.8 2137.7 329.248 2137.7 347.056C2137.7 350.519 2137.45 353.981 2136.96 357.444C2136.71 360.659 2136.46 363.504 2136.22 365.977H1992.27C1993.01 374.634 1995.36 381.93 1999.32 387.866C2003.52 393.802 2008.84 398.378 2015.27 401.593C2021.7 404.561 2028.5 406.045 2035.68 406.045C2044.58 406.045 2052.87 403.943 2060.53 399.738C2068.45 395.533 2073.89 389.845 2076.86 382.672L2127.31 396.77C2122.37 406.911 2115.32 415.938 2106.17 423.853C2097.26 431.52 2086.63 437.58 2074.26 442.032C2062.14 446.484 2048.66 448.71 2033.82 448.71ZM1990.78 329.619H2075.37C2074.38 321.457 2072.03 314.408 2068.32 308.472C2064.61 302.289 2059.67 297.589 2053.48 294.374C2047.3 290.911 2040.5 289.18 2033.08 289.18C2025.41 289.18 2018.49 290.911 2012.3 294.374C2006.37 297.589 2001.54 302.289 1997.83 308.472C1994.12 314.408 1991.77 321.457 1990.78 329.619ZM2288.15 301.052C2273.8 301.052 2260.82 303.402 2249.19 308.101C2237.57 312.553 2229.16 319.231 2223.96 328.135V445H2164.6V250.225H2219.14V289.551C2225.82 276.442 2234.48 266.178 2245.11 258.758C2255.75 251.338 2266.88 247.504 2278.5 247.257C2281.22 247.257 2283.2 247.257 2284.44 247.257C2285.92 247.257 2287.16 247.381 2288.15 247.628V301.052ZM2313.15 445V250.225H2372.51V445H2313.15ZM2313.15 227.965V174.17H2372.51V227.965H2313.15ZM2402.02 347.427C2402.02 328.382 2405.73 311.316 2413.15 296.229C2420.57 280.894 2430.71 268.775 2443.57 259.871C2456.43 250.967 2471.27 246.515 2488.09 246.515C2501.69 246.515 2514.06 249.854 2525.19 256.532C2536.32 262.963 2544.73 271.496 2550.42 282.131V174.17H2609.78V378.962C2609.78 384.898 2610.76 389.103 2612.74 391.576C2614.72 393.802 2617.94 395.162 2622.39 395.657V445C2612 446.979 2603.59 447.968 2597.16 447.968C2587.02 447.968 2578.73 445.742 2572.3 441.29C2566.12 436.838 2562.29 430.655 2560.8 422.74L2559.69 412.723C2552.76 424.842 2543.37 433.87 2531.49 439.806C2519.62 445.742 2507.13 448.71 2494.02 448.71C2480.67 448.71 2468.3 446.237 2456.92 441.29C2445.79 436.096 2436.02 428.923 2427.61 419.772C2419.45 410.621 2413.15 399.862 2408.69 387.495C2404.24 375.128 2402.02 361.772 2402.02 347.427ZM2550.79 371.542V330.732C2548.31 324.054 2544.73 318.242 2540.03 313.295C2535.58 308.348 2530.38 304.391 2524.45 301.423C2518.76 298.455 2512.94 296.971 2507.01 296.971C2500.58 296.971 2494.64 298.331 2489.2 301.052C2484.01 303.773 2479.43 307.606 2475.47 312.553C2471.52 317.252 2468.42 322.694 2466.2 328.877C2464.22 335.06 2463.23 341.615 2463.23 348.54C2463.23 355.713 2464.34 362.391 2466.57 368.574C2469.04 374.51 2472.38 379.828 2476.59 384.527C2480.79 388.979 2485.74 392.442 2491.43 394.915C2497.11 397.388 2503.3 398.625 2509.98 398.625C2514.18 398.625 2518.26 398.007 2522.22 396.77C2526.18 395.286 2529.89 393.431 2533.35 391.205C2537.06 388.979 2540.4 386.135 2543.37 382.672C2546.33 379.209 2548.81 375.499 2550.79 371.542ZM2655.89 445V250.225H2715.25V445H2655.89ZM2655.89 227.965V174.17H2715.25V227.965H2655.89ZM2743.64 386.753C2743.64 373.892 2747.23 362.638 2754.4 352.992C2761.57 343.346 2771.47 335.802 2784.08 330.361C2796.7 324.672 2811.16 321.828 2827.49 321.828C2835.4 321.828 2843.19 322.57 2850.86 324.054C2858.53 325.291 2865.21 327.146 2870.9 329.619V321.086C2870.9 310.451 2867.68 302.289 2861.25 296.6C2854.82 290.911 2845.05 288.067 2831.94 288.067C2821.06 288.067 2810.79 289.922 2801.15 293.632C2791.75 297.342 2781.73 302.66 2771.1 309.585L2753.29 271.743C2766.15 263.334 2779.51 257.027 2793.36 252.822C2807.45 248.617 2822.29 246.515 2837.88 246.515C2867.06 246.515 2889.69 253.564 2905.77 267.662C2922.09 281.513 2930.26 301.67 2930.26 328.135V378.962C2930.26 384.898 2931.12 389.103 2932.85 391.576C2934.83 393.802 2938.17 395.162 2942.87 395.657V445C2937.92 445.989 2933.22 446.731 2928.77 447.226C2924.57 447.721 2920.86 447.968 2917.64 447.968C2906.51 447.968 2897.98 445.742 2892.04 441.29C2886.35 436.838 2882.77 430.778 2881.28 423.111L2880.17 414.578C2871.51 425.708 2861.13 434.241 2849.01 440.177C2837.13 445.866 2824.64 448.71 2811.54 448.71C2798.67 448.71 2787.05 445.989 2776.66 440.548C2766.52 435.107 2758.48 427.687 2752.55 418.288C2746.61 408.889 2743.64 398.378 2743.64 386.753ZM2861.62 394.173C2864.34 391.947 2866.57 389.474 2868.3 386.753C2870.03 384.032 2870.9 381.435 2870.9 378.962V361.525C2865.95 359.546 2860.38 358.062 2854.2 357.073C2848.26 355.836 2842.7 355.218 2837.51 355.218C2826.62 355.218 2817.6 357.691 2810.42 362.638C2803.25 367.337 2799.66 373.644 2799.66 381.559C2799.66 386.011 2800.9 390.092 2803.37 393.802C2805.85 397.512 2809.19 400.48 2813.39 402.706C2817.84 404.932 2823.04 406.045 2828.97 406.045C2834.91 406.045 2840.84 404.932 2846.78 402.706C2852.72 400.48 2857.66 397.636 2861.62 394.173ZM3160.99 445H3101.63V335.555C3101.63 322.694 3099.16 313.419 3094.21 307.73C3089.51 301.794 3083.21 298.826 3075.29 298.826C3069.85 298.826 3064.29 300.31 3058.6 303.278C3052.91 306.246 3047.72 310.327 3043.02 315.521C3038.56 320.715 3035.1 326.651 3032.63 333.329V445H2973.27V250.225H3026.69V282.873C3031.64 275.206 3037.82 268.651 3045.24 263.21C3052.66 257.769 3061.2 253.688 3070.84 250.967C3080.49 247.999 3091 246.515 3102.38 246.515C3114.99 246.515 3125.13 248.865 3132.8 253.564C3140.71 258.016 3146.65 263.952 3150.61 271.372C3154.81 278.792 3157.53 286.83 3158.77 295.487C3160.25 303.896 3160.99 312.182 3160.99 320.344V445Z" fill="#0053DB"/>
</svg>
